<svg xmlns="http://www.w3.org/2000/svg" xmlns:xlink="http://www.w3.org/1999/xlink" viewBox="0 0 20 25" version="1.1" x="0px" y="0px"><title>refresh</title><desc>Created with Sketch.</desc><g stroke="none" stroke-width="1" fill="none" fill-rule="evenodd"><g transform="translate(-460.000000, -371.000000)" fill="#000000" fill-rule="nonzero"><path d="M470,371 C472.687391,371 475.208456,372.06632 477.071068,373.928932 C477.407093,374.264958 477.718332,374.62381 478.002566,375.002528 L478,373 C478,372.487164 478.38604,372.064493 478.883379,372.006728 L479,372 C479.512836,372 479.935507,372.38604 479.993272,372.883379 L480,373 L480,378 C480,378.512836 479.61396,378.935507 479.116621,378.993272 L479,379 L474,379 C473.447715,379 473,378.552285 473,378 C473,377.487164 473.38604,377.064493 473.883379,377.006728 L474,377 L476.930056,377.000219 C476.580517,376.396062 476.152421,375.838713 475.656854,375.343146 C474.165597,373.851889 472.151506,373 470,373 C465.581722,373 462,376.581722 462,381 C462,385.418278 465.581722,389 470,389 C472.151506,389 474.165597,388.148111 475.656854,386.656854 C476.399799,385.91391 476.991098,385.032107 477.393404,384.061904 C477.593423,383.579539 477.745755,383.077753 477.847716,382.562335 C477.954894,382.020549 478.480982,381.66823 479.022768,381.775407 C479.564553,381.882585 479.916872,382.408673 479.809695,382.950459 C479.682053,383.59569 479.491295,384.224052 479.24087,384.827978 C478.73768,386.041473 477.998855,387.14328 477.071068,388.071068 C475.208456,389.93368 472.687391,391 470,391 C464.477153,391 460,386.522847 460,381 C460,375.477153 464.477153,371 470,371 Z"/></g></g><text x="0" y="35" fill="#000000" font-size="5px" font-weight="bold" font-family="'Helvetica Neue', Helvetica, Arial-Unicode, Arial, Sans-serif">Created by Danny Amacher</text><text x="0" y="40" fill="#000000" font-size="5px" font-weight="bold" font-family="'Helvetica Neue', Helvetica, Arial-Unicode, Arial, Sans-serif">from the Noun Project</text></svg>